<svg width="358" height="385" viewBox="0 0 358 385" fill="none" xmlns="http://www.w3.org/2000/svg">
<path d="M289.667 27.5H301.583V95.333H278.667V122.833H244.75V147.583H210.833V158.583H255.75V169.583H289.667V143H357.5V210.833H335.5V237.417H210.833V226.417H187.917V244.75H233.75V273.167H278.667V317.167H301.583V385H233.75V341H210.833V312.583H165.917V317.167H132V365.75H77.917V374.917H10.083V307.083H64.167V297.917H98.083V249.333H120.083V203.5H132V169.583H101.75V181.5H67.833V210.833H0V143H33.917V113.667H86.167V101.75H154V113.667H176.917V97.167H154V29.333H176.917V0H289.667V27.5Z" fill="white"/>
</svg>
