<svg width="200" height="28" viewBox="0 0 121 17" fill="none" xmlns="http://www.w3.org/2000/svg">
<mask id="path-1-inside-1_11_35" fill="white">
<path d="M113 0.514648L120.971 8.48535L113 16.4561V17H8V16.4854L0 8.48535L8 0.485352V0H113V0.514648Z"/>
</mask>
<path d="M113 0.514648H111V1.34308L111.586 1.92886L113 0.514648ZM120.971 8.48535L122.385 9.89957L123.799 8.48535L122.385 7.07114L120.971 8.48535ZM113 16.4561L111.586 15.0418L111 15.6276V16.4561H113ZM113 17V19H115V17H113ZM8 17H6V19H8V17ZM8 16.4854H10V15.6569L9.41421 15.0711L8 16.4854ZM0 8.48535L-1.41421 7.07114L-2.82843 8.48535L-1.41421 9.89957L0 8.48535ZM8 0.485352L9.41421 1.89957L10 1.31378V0.485352H8ZM8 0V-2H6V0H8ZM113 0H115V-2H113V0ZM113 0.514648L111.586 1.92886L119.556 9.89957L120.971 8.48535L122.385 7.07114L114.414 -0.899565L113 0.514648ZM120.971 8.48535L119.556 7.07114L111.586 15.0418L113 16.4561L114.414 17.8703L122.385 9.89957L120.971 8.48535ZM113 16.4561H111V17H113H115V16.4561H113ZM113 17V15H8V17V19H113V17ZM8 17H10V16.4854H8H6V17H8ZM8 16.4854L9.41421 15.0711L1.41421 7.07114L0 8.48535L-1.41421 9.89957L6.58579 17.8996L8 16.4854ZM0 8.48535L1.41421 9.89957L9.41421 1.89957L8 0.485352L6.58579 -0.928862L-1.41421 7.07114L0 8.48535ZM8 0.485352H10V0H8H6V0.485352H8ZM8 0V2H113V0V-2H8V0ZM113 0H111V0.514648H113H115V0H113Z" fill="black" mask="url(#path-1-inside-1_11_35)"/>
<path d="M38.5 6H39V5.5H39.5V5H41.5V5.5H42V6H42.5V9.5H42V10H41.5V10.5H39.5V10H39V9.5H38.5V6ZM39.5 6V9.5H40V10H41V9.5H41.5V6H41V5.5H40V6H39.5ZM44 4.5H45V11H44V4.5ZM46.5 6H47V5.5H47.5V5H49.5V5.5H50V6H50.5V9.5H50V10H49.5V10.5H47.5V10H47V9.5H46.5V6ZM47.5 6V9.5H48V10H49V9.5H49.5V6H49V5.5H48V6H47.5ZM51.5 4.5H52.5V6.5H54V7H52.5V8.5H54V9H52.5V11H51.5V4.5ZM54.5 5H57.5V9.5H57V10H56.5V10.5H55V10H56V9.5H56.5V5.5H54.5V5ZM60 4.5H61V11H60V4.5ZM65 5H66.5V4.5H67.5V5H69V5.5H65V5ZM65 7H65.5V6.5H66V6H68V6.5H68.5V7H69V9.5H68.5V10H68V10.5H66V10H65.5V9.5H65V7ZM66 7V9.5H66.5V10H67.5V9.5H68V7H67.5V6.5H66.5V7H66ZM70 4.5H71V7.5H72.5V8H71V11H70V4.5ZM73 5H76V9.5H75.5V10H75V10.5H73.5V10H74.5V9.5H75V5.5H73V5ZM78.5 4.5H79.5V11H78.5V4.5Z" fill="black"/>
</svg>
